<svg xmlns="http://www.w3.org/2000/svg" xmlns:xlink="http://www.w3.org/1999/xlink" viewBox="0 0 570.63 360.14"><defs><style>.cls-1{fill:#2684ff;}.cls-2{fill:#4c9aff;}.cls-3{fill:#253858;}.cls-4{fill:url(#linear-gradient);}.cls-5{fill:#9e795f;}.cls-6{isolation:isolate;}.cls-10,.cls-31,.cls-7,.cls-8,.cls-9{opacity:0.5;}.cls-7{fill:url(#linear-gradient-2);}.cls-8{fill:url(#linear-gradient-3);}.cls-9{fill:url(#linear-gradient-4);}.cls-10{fill:url(#linear-gradient-5);}.cls-11{fill:#c1c7d0;}.cls-12{fill:#a5adba;}.cls-13{fill:#f4f5f7;}.cls-14{fill:#dfe1e5;}.cls-15{fill:url(#linear-gradient-6);}.cls-16{fill:#b2d4ff;}.cls-17{fill:#172b4d;}.cls-18,.cls-31{fill:#0065ff;}.cls-19{fill:#fff;}.cls-20{fill:#ffe380;}.cls-21{fill:#abf5d1;}.cls-22{clip-path:url(#clip-path);}.cls-23{clip-path:url(#clip-path-2);}.cls-24{opacity:0.65;}.cls-25,.cls-26,.cls-27{opacity:0.74;}.cls-25{fill:url(#linear-gradient-7);}.cls-26{fill:url(#linear-gradient-8);}.cls-27{fill:url(#linear-gradient-9);}.cls-28{fill:url(#linear-gradient-10);}.cls-29,.cls-36{fill:none;}.cls-29{stroke:#ffc400;stroke-width:3.16px;}.cls-29,.cls-36,.cls-52,.cls-53{stroke-miterlimit:10;}.cls-30{opacity:0.4;}.cls-32{fill:#57d9a3;}.cls-33{fill:#e3fcef;}.cls-34{fill:url(#linear-gradient-11);}.cls-35{opacity:0.7;}.cls-36{stroke:#0065ff;stroke-width:1.95px;}.cls-37{fill:#e5e8ec;}.cls-37,.cls-52,.cls-53{mix-blend-mode:multiply;}.cls-38{fill:#fafbfc;}.cls-39{fill:#ffc400;}.cls-40{fill:#ff8b00;}.cls-41{fill:#ff991f;}.cls-42{fill:url(#linear-gradient-12);}.cls-43{fill:#344563;}.cls-44{clip-path:url(#clip-path-3);}.cls-45{fill:#42526e;}.cls-46{clip-path:url(#clip-path-4);}.cls-47{fill:#b0d2ff;}.cls-48{fill:url(#linear-gradient-13);}.cls-49{fill:url(#linear-gradient-14);}.cls-50{fill:url(#linear-gradient-15);}.cls-51{clip-path:url(#clip-path-5);}.cls-52,.cls-53{stroke:#fff0ae;stroke-linecap:round;stroke-width:2.04px;}.cls-52{fill:url(#linear-gradient-17);}.cls-53{fill:url(#linear-gradient-18);}.cls-54{clip-path:url(#clip-path-6);}.cls-55{fill:#162a4e;}.cls-56{fill:url(#linear-gradient-19);}.cls-57{fill:#f1dac9;}.cls-58{fill:url(#linear-gradient-20);}.cls-59{fill:#334464;}.cls-60{fill:url(#linear-gradient-21);}.cls-61{fill:url(#linear-gradient-22);}.cls-62{fill:url(#linear-gradient-23);}.cls-63{fill:#081d43;}.cls-64{fill:url(#linear-gradient-24);}.cls-65{fill:url(#New_Gradient_Swatch_14);}.cls-66{fill:#cea188;}.cls-67{fill:#243759;}.cls-68{fill:#fffae5;}</style><linearGradient id="linear-gradient" x1="-6865.9" y1="285.77" x2="-6865.9" y2="255.04" gradientTransform="translate(7005.44)" gradientUnits="userSpaceOnUse"><stop offset="0" stop-color="#ffab00"/><stop offset="0.01" stop-color="#ffac00"/><stop offset="0.19" stop-color="#ffb900"/><stop offset="0.42" stop-color="#ffc200"/><stop offset="0.82" stop-color="#ffc400"/></linearGradient><linearGradient id="linear-gradient-2" x1="4267.25" y1="53.93" x2="4267.25" y2="10.23" gradientTransform="matrix(-1, 0, 0, 1, 4746.36, 0)" gradientUnits="userSpaceOnUse"><stop offset="0.02" stop-color="#b2d4ff" stop-opacity="0"/><stop offset="0.15" stop-color="#b2d4ff" stop-opacity="0.3"/><stop offset="0.27" stop-color="#b2d4ff" stop-opacity="0.55"/><stop offset="0.38" stop-color="#b2d4ff" stop-opacity="0.74"/><stop offset="0.47" stop-color="#b2d4ff" stop-opacity="0.88"/><stop offset="0.54" stop-color="#b2d4ff" stop-opacity="0.97"/><stop offset="0.59" stop-color="#b2d4ff"/></linearGradient><linearGradient id="linear-gradient-3" x1="90.06" y1="142.52" x2="90.06" y2="86.23" gradientTransform="matrix(1, 0, 0, 1, 0, 0)" xlink:href="#linear-gradient-2"/><linearGradient id="linear-gradient-4" x1="556.74" y1="94.88" x2="539.13" y2="42.49" gradientUnits="userSpaceOnUse"><stop offset="0.02" stop-color="#b2d4ff" stop-opacity="0"/><stop offset="0.2" stop-color="#b2d4ff" stop-opacity="0.3"/><stop offset="0.36" stop-color="#b2d4ff" stop-opacity="0.55"/><stop offset="0.5" stop-color="#b2d4ff" stop-opacity="0.74"/><stop offset="0.63" stop-color="#b2d4ff" stop-opacity="0.88"/><stop offset="0.73" stop-color="#b2d4ff" stop-opacity="0.97"/><stop offset="0.8" stop-color="#b2d4ff"/></linearGradient><linearGradient id="linear-gradient-5" x1="486.52" y1="282.73" x2="486.52" y2="231.55" gradientTransform="matrix(1, 0, 0, 1, 0, 0)" xlink:href="#linear-gradient-2"/><linearGradient id="linear-gradient-6" x1="2743.17" y1="151.58" x2="3104.67" y2="151.58" gradientTransform="matrix(1, 0, 0, -1, -2614.12, 303.15)" gradientUnits="userSpaceOnUse"><stop offset="0" stop-color="#dfe1e5"/><stop offset="0.5" stop-color="#dddfe4"/><stop offset="0.68" stop-color="#d6d9df"/><stop offset="0.81" stop-color="#cbcfd6"/><stop offset="0.91" stop-color="#bac0c9"/><stop offset="1" stop-color="#a5adba"/></linearGradient><clipPath id="clip-path" transform="translate(-14.47 0)"><path class="cls-1" d="M346.87,151.73a37.91,37.91,0,0,0-75.79,0h0v99.45h75.84V151.73Z"/></clipPath><clipPath id="clip-path-2" transform="translate(-14.47 0)"><path class="cls-2" d="M358.45,151.73a37.91,37.91,0,0,0-75.79,0h0v99.45h75.83V151.73Z"/></clipPath><linearGradient id="linear-gradient-7" x1="288.44" y1="169.12" x2="288.44" y2="141.87" gradientUnits="userSpaceOnUse"><stop offset="0" stop-color="#fff" stop-opacity="0"/><stop offset="0.8" stop-color="#fff"/></linearGradient><linearGradient id="linear-gradient-8" x1="338.75" y1="142.1" x2="328.54" y2="111.74" xlink:href="#linear-gradient-7"/><linearGradient id="linear-gradient-9" x1="346.89" y1="224.56" x2="346.89" y2="194.9" xlink:href="#linear-gradient-7"/><linearGradient id="linear-gradient-10" x1="287.98" y1="220.8" x2="203.66" y2="336.92" gradientUnits="userSpaceOnUse"><stop offset="0" stop-color="#2684ff"/><stop offset="0.39" stop-color="#5aa2ff"/><stop offset="1" stop-color="#b2d4ff"/></linearGradient><linearGradient id="linear-gradient-11" x1="442.15" y1="89.46" x2="442.15" y2="143.83" gradientTransform="matrix(1, 0, 0, -1, 0, 383.96)" gradientUnits="userSpaceOnUse"><stop offset="0" stop-color="#0065ff"/><stop offset="0.02" stop-color="#0569ff"/><stop offset="0.15" stop-color="#1f7bff"/><stop offset="0.3" stop-color="#3389ff"/><stop offset="0.46" stop-color="#4192ff"/><stop offset="0.66" stop-color="#4a98ff"/><stop offset="1" stop-color="#4c9aff"/></linearGradient><linearGradient id="linear-gradient-12" x1="179.91" y1="277.1" x2="184.16" y2="274.23" gradientTransform="matrix(0.67, 0.75, -0.75, 0.67, 260.59, -43.73)" gradientUnits="userSpaceOnUse"><stop offset="0.09" stop-color="#9e795f"/><stop offset="0.41" stop-color="#95725a"/><stop offset="0.64" stop-color="#8c6b54"/><stop offset="0.77" stop-color="#947259"/><stop offset="1" stop-color="#9e795f"/></linearGradient><clipPath id="clip-path-3" transform="translate(-14.47 0)"><path class="cls-3" d="M161.06,359.61l-14.73-.2.13-9.36,4.8.28c.45,3.1,1.61,4.36,2.53,5,2.05,1.32,4.48.31,6.18,2A4.31,4.31,0,0,1,161.06,359.61Z"/></clipPath><clipPath id="clip-path-4" transform="translate(-14.47 0)"><path class="cls-3" d="M138.81,359.61l-14.62-1.77,1.13-9.29,4.74.79c.11,3.12,1.13,4.51,2,5.19,1.9,1.54,4.43.8,5.93,2.69A4.3,4.3,0,0,1,138.81,359.61Z"/></clipPath><linearGradient id="linear-gradient-13" x1="9203.85" y1="254.14" x2="9214" y2="254.14" gradientTransform="matrix(-1, 0, 0, 1, 9349.16, 0)" gradientUnits="userSpaceOnUse"><stop offset="0" stop-color="#ae876a"/><stop offset="1" stop-color="#9e795f"/></linearGradient><linearGradient id="linear-gradient-14" x1="144.86" y1="268.18" x2="154.96" y2="268.18" gradientUnits="userSpaceOnUse"><stop offset="0.35" stop-color="#ffab00"/><stop offset="1" stop-color="#ffc400"/></linearGradient><linearGradient id="linear-gradient-15" x1="124.5" y1="318.14" x2="152.79" y2="318.14" gradientUnits="userSpaceOnUse"><stop offset="0" stop-color="#ffc400"/><stop offset="0.56" stop-color="#ff991f"/></linearGradient><clipPath id="clip-path-5" transform="translate(-14.47 0)"><path class="cls-4" d="M147.17,255a22.33,22.33,0,0,1-2.42,0,5.35,5.35,0,0,1-6.92,1.16l-1.89-1.16-6.13,3.77a3.19,3.19,0,0,0-1.49,3.14c.13,1,.29,2.06.46,3.27.69,4.85,1,7.29,1.43,9.29a70.2,70.2,0,0,1,1.42,6.92c.29,2.16.4,1.09.44,2.29a20.43,20.43,0,0,0,18.06-.16,27.15,27.15,0,0,0-.28-3.5,9.85,9.85,0,0,1,.11-2.28c1.12-4.74-1.35-6.46-.23-11.59a35.24,35.24,0,0,0,.94-4.67,11.14,11.14,0,0,0-.09-3.49A3.14,3.14,0,0,0,147.17,255Z"/></clipPath><linearGradient id="linear-gradient-17" x1="9205.92" y1="287.04" x2="9205.92" y2="287.04" gradientTransform="matrix(-1, 0, 0, 1, 9349.16, 0)" gradientUnits="userSpaceOnUse"><stop offset="0" stop-color="#004dce"/><stop offset="0.03" stop-color="#004fd3"/><stop offset="0.16" stop-color="#0056e7"/><stop offset="0.31" stop-color="#005bf4"/><stop offset="0.49" stop-color="#005efd"/><stop offset="0.82" stop-color="#005fff"/></linearGradient><linearGradient id="linear-gradient-18" x1="9207.73" y1="257.79" x2="9207.73" y2="257.79" xlink:href="#linear-gradient-17"/><clipPath id="clip-path-6" transform="translate(-14.47 0)"><path class="cls-5" d="M141.32,252.58c3.8.51,4.18.61,4.61.24s.53-1.07,1-2.69c.23-.81.4-1.5.52-2,.26.08,1,.27,1.21,0s0-.55-.24-1.08a14.78,14.78,0,0,1-.62-2c0-.13,0-.27,0-.42a7,7,0,0,0-.31-2.32,7.25,7.25,0,0,0-2.15-3.11,7,7,0,0,0-7.65-.91,6.78,6.78,0,0,0-3.4,5.26,13.77,13.77,0,0,0,.77,4.44v0l.1.28c.17.53,1,1,1,1,.74.45.89.27,1.29.56.73.52.49,1.26,1,1.93C138.88,252.26,139.42,252.32,141.32,252.58Z"/></clipPath><linearGradient id="linear-gradient-19" x1="-1265.47" y1="-5779.26" x2="-1265.32" y2="-5791.9" gradientTransform="matrix(0.87, 0.5, -0.5, 0.87, -1652.53, 5911.63)" xlink:href="#linear-gradient-14"/><linearGradient id="linear-gradient-20" x1="263.36" y1="147.83" x2="274.02" y2="198.88" gradientUnits="userSpaceOnUse"><stop offset="0" stop-color="#064"/><stop offset="1" stop-color="#79f2c0"/></linearGradient><linearGradient id="linear-gradient-21" x1="270.61" y1="224.4" x2="314.92" y2="224.4" gradientUnits="userSpaceOnUse"><stop offset="0" stop-color="#00875a"/><stop offset="1" stop-color="#79f2c0"/></linearGradient><linearGradient id="linear-gradient-22" x1="277.7" y1="212.94" x2="286.13" y2="172.55" gradientUnits="userSpaceOnUse"><stop offset="0" stop-color="#79f2c0"/><stop offset="0.97" stop-color="#36b37e"/></linearGradient><linearGradient id="linear-gradient-23" x1="276.17" y1="169.64" x2="320.89" y2="166.76" gradientUnits="userSpaceOnUse"><stop offset="0.03" stop-color="#36b37e"/><stop offset="1" stop-color="#57d9a3"/></linearGradient><linearGradient id="linear-gradient-24" x1="209.39" y1="316.98" x2="209.39" y2="244.93" gradientUnits="userSpaceOnUse"><stop offset="0" stop-color="#4c9aff"/><stop offset="1" stop-color="#0065ff"/></linearGradient><linearGradient id="New_Gradient_Swatch_14" x1="203.95" y1="273.83" x2="254.95" y2="273.83" gradientUnits="userSpaceOnUse"><stop offset="0" stop-color="#0052cc"/><stop offset="1" stop-color="#2684ff"/></linearGradient></defs><title>free-lp-hero-v2</title><g class="cls-6"><g id="Layer_1" data-name="Layer 1"><path class="cls-7" d="M498.68,13.63c-9.39-4.57-23.82-5.49-32.57,3.29a24.77,24.77,0,0,0-6.62,14.17c-3.47-.95-8.76-1.79-13.41.73-5.42,2.93-5.79,8.14-11.48,13.89a32.8,32.8,0,0,1-14.18,8.22h117a18.4,18.4,0,0,0-5.72-17.65c-7.08-6.26-16-4.15-16.72-4C513.91,29.46,509.73,19,498.68,13.63Z" transform="translate(-14.47 0)"/><path class="cls-8" d="M64.86,90.61C77,84.73,95.53,83.54,106.8,94.85c6.26,6.29,8,14.15,8.53,18.25,4.46-1.23,11.28-2.3,17.27.94,7,3.77,7.45,10.48,14.79,17.89,3.37,3.41,9,7.73,18.26,10.59H15a23.73,23.73,0,0,1,7.38-22.74c9.11-8.06,20.56-5.35,21.53-5.1C45.24,111,50.62,97.52,64.86,90.61Z" transform="translate(-14.47 0)"/><path class="cls-9" d="M541.38,59.54c5.24-2.55,13.31-3.07,18.19,1.84a13.8,13.8,0,0,1,3.7,7.92c1.94-.53,4.89-1,7.49.4,3,1.64,3.23,4.55,6.42,7.77a18.45,18.45,0,0,0,7.92,4.59H519.76A10.31,10.31,0,0,1,523,72.19,10.81,10.81,0,0,1,532.29,70,18.79,18.79,0,0,1,541.38,59.54Z" transform="translate(-14.47 0)"/><path class="cls-10" d="M463.6,235.53c11-5.35,27.89-6.43,38.14,3.85,5.7,5.73,7.25,12.88,7.75,16.6,4.07-1.11,10.26-2.09,15.71.85,6.34,3.43,6.78,9.54,13.45,16.28a38.52,38.52,0,0,0,16.61,9.62h-137a21.56,21.56,0,0,1,6.7-20.67c8.3-7.33,18.71-4.87,19.58-4.64C445.76,254.07,450.65,241.82,463.6,235.53Z" transform="translate(-14.47 0)"/><rect class="cls-11" x="313.65" y="251.18" width="49.12" height="74.83" transform="translate(661.94 577.19) rotate(-180)"/><rect class="cls-12" x="262.91" y="251.18" width="89.36" height="71.26" transform="translate(600.7 573.62) rotate(-180)"/><rect class="cls-13" x="139.65" y="36.1" width="361.49" height="231.25" rx="12.8" transform="translate(626.32 303.46) rotate(-180)"/><path class="cls-14" d="M196.92,326H416a1.79,1.79,0,0,0,0-3.57H196.92a1.79,1.79,0,1,0,0,3.57Z" transform="translate(-14.47 0)"/><rect class="cls-15" x="129.06" y="35.95" width="361.49" height="231.25" rx="12.8" transform="translate(605.14 303.15) rotate(-180)"/><rect class="cls-16" x="209.77" y="-14.68" width="198.91" height="330.94" transform="translate(445.54 -158.43) rotate(90)"/><path class="cls-17" d="M293.21,364.5" transform="translate(-14.47 0)"/><rect class="cls-18" x="129.28" y="51.33" width="29.09" height="198.91"/><circle class="cls-19" cx="143.83" cy="68.93" r="9.4"/><rect class="cls-19" x="173.92" y="68.07" width="89.34" height="167.31" rx="3.16"/><rect class="cls-19" x="279.05" y="68.07" width="165.12" height="56.72" rx="3.16"/><rect class="cls-19" x="279.05" y="140.59" width="165.12" height="94.8" rx="3.16"/><circle class="cls-20" cx="305.49" cy="96.43" r="12.74"/><polygon class="cls-21" points="342.9 109.17 328.19 109.17 335.55 96.43 342.9 83.69 350.26 96.43 357.62 109.17 342.9 109.17"/><polygon class="cls-20" points="387.68 83.69 372.96 83.69 365.61 96.43 372.96 109.17 387.68 109.17 395.04 96.43 387.68 83.69"/><rect class="cls-21" x="405" y="83.69" width="25.49" height="25.49"/><path class="cls-1" d="M346.87,151.73a37.91,37.91,0,0,0-75.79,0h0v99.45h75.84V151.73Z" transform="translate(-14.47 0)"/><g class="cls-22"><path class="cls-2" d="M358.45,151.73a37.91,37.91,0,0,0-75.79,0h0v99.45h75.83V151.73Z" transform="translate(-14.47 0)"/><g class="cls-23"><g class="cls-24"><path class="cls-25" d="M276.24,144c5.85-2.84,14.85-3.42,20.3,2.06a15.33,15.33,0,0,1,4.13,8.83c2.17-.59,5.46-1.11,8.36.46,3.38,1.83,3.61,5.07,7.17,8.66a20.45,20.45,0,0,0,8.84,5.13H252.1a11.48,11.48,0,0,1,3.57-11,12,12,0,0,1,10.42-2.47C266.74,153.86,269.34,147.33,276.24,144Z" transform="translate(-14.47 0)"/><path class="cls-26" d="M329.85,121.62c3-1.48,7.71-1.78,10.54,1.07a8,8,0,0,1,2.14,4.58,6,6,0,0,1,4.34.24c1.76,1,1.88,2.64,3.72,4.5a10.76,10.76,0,0,0,4.59,2.66H317.32a6,6,0,0,1,1.85-5.72,6.26,6.26,0,0,1,5.41-1.28A10.93,10.93,0,0,1,329.85,121.62Z" transform="translate(-14.47 0)"/><path class="cls-27" d="M333.61,197.21c6.37-3.1,16.16-3.73,22.1,2.23a16.78,16.78,0,0,1,4.49,9.62c2.36-.65,5.95-1.21,9.11.49,3.67,2,3.92,5.53,7.79,9.43a22.22,22.22,0,0,0,9.62,5.58H307.34a12.48,12.48,0,0,1,3.88-12c4.81-4.24,10.84-2.82,11.35-2.69C323.27,208,326.11,200.85,333.61,197.21Z" transform="translate(-14.47 0)"/></g></g></g><polygon class="cls-28" points="256.58 251.18 132.21 343.74 250.17 343.74 332.42 251.18 256.58 251.18"/><path class="cls-29" d="M458.36,44.36" transform="translate(-14.47 0)"/><g class="cls-30"><path class="cls-31" d="M103.6.12l-11,8.79L82.29.12s6.37-.8,10.65,4A11.72,11.72,0,0,1,103.6.12Z" transform="translate(-14.47 0)"/><path class="cls-31" d="M131.57,11.44l-11,8.79-10.33-8.79s6.37-.8,10.66,4A11.7,11.7,0,0,1,131.57,11.44Z" transform="translate(-14.47 0)"/></g><path class="cls-32" d="M139.54,257.35c12.54-4.47,24.42,6.07,37,1.6l1.21-27.79c-12.54,4.47-24.43-6.07-37-1.6Z" transform="translate(-14.47 0)"/><path class="cls-33" d="M156,251.33l-5.87-5.75a.66.66,0,0,1,0-.94h0l1.45-1.48a.66.66,0,0,1,.94,0h0l3.89,3.81,9.46-9.69a.66.66,0,0,1,.94,0h0l1.48,1.45a.66.66,0,0,1,0,.94h0l-11.36,11.64A.67.67,0,0,1,156,251.33Z" transform="translate(-14.47 0)"/><path class="cls-34" d="M479.39,240.13c-3.48,20.16-1.49,39-14.94,54.38H404.92c13.44-15.42,11.44-34.22,14.92-54.38Z" transform="translate(-14.47 0)"/><g class="cls-35"><line class="cls-36" x1="413.94" y1="257.27" x2="451.31" y2="257.44"/><line class="cls-36" x1="413.37" y1="263.48" x2="450.74" y2="263.65"/><line class="cls-36" x1="413.06" y1="269.26" x2="441.73" y2="269.39"/></g><circle id="_Ellipse_3" data-name=" Ellipse 3" class="cls-37" cx="450.65" cy="231.23" r="18.58"/><circle id="_Ellipse_3-2" data-name=" Ellipse 3" class="cls-38" cx="451.97" cy="229.91" r="18.58"/><circle id="_Ellipse_3-3" data-name=" Ellipse 3" class="cls-39" cx="451.97" cy="229.91" r="16.56"/><circle class="cls-40" cx="445.24" cy="225.05" r="1.77"/><circle class="cls-40" cx="460.38" cy="229.87" r="1.77"/><path class="cls-41" d="M457.71,230.92a11,11,0,0,0,14.51,5.41l.5-.24Z" transform="translate(-14.47 0)"/><path class="cls-42" d="M173.7,273.51a5.11,5.11,0,0,0-1.6.91,2.34,2.34,0,0,0-.75,1.23c-.25,1.38,1.47,3,3.15,3.41a5.56,5.56,0,0,0,2.14-.05c1.11-.17,1.29-.43,1.35-.58a.89.89,0,0,0-.12-.74c.81,0,1.12-.18,1.23-.38.2-.38-.08-1.15-.08-1.15s.9-.38.88-.77c0-.14-.11-.24-.59-.6-.9-.66-.93-.59-1-.76-.37-.57.14-1.15-.24-1.6a1.17,1.17,0,0,0-.85-.3c-.57,0-.87.21-1.86.68C174.58,273.16,174.71,273.05,173.7,273.51Z" transform="translate(-14.47 0)"/><path class="cls-43" d="M176.08,284.2a1,1,0,0,0,1-.9l2.25-52.07a.94.94,0,1,0-1.87-.08l-2.26,52.07A1,1,0,0,0,176.08,284.2Z" transform="translate(-14.47 0)"/><path class="cls-5" d="M177.1,278.91c-.83-.31-1.67-.08-1.81-.48-.07-.21.1-.43.21-.56-.63-.11-.64-.49-.61-.8s.69-.52.69-.52-.64-.44-.56-.74c0-.11.12-.17.55-.37.8-.38.33-.09.45-.2.37-.38-.43-.37-.23-1a1.4,1.4,0,0,1,1.85-.53,6.7,6.7,0,0,1,1.32.83" transform="translate(-14.47 0)"/><path class="cls-3" d="M161.06,359.61l-14.73-.2.13-9.36,4.8.28c.45,3.1,1.61,4.36,2.53,5,2.05,1.32,4.48.31,6.18,2A4.31,4.31,0,0,1,161.06,359.61Z" transform="translate(-14.47 0)"/><g class="cls-44"><rect class="cls-45" x="146.05" y="358.51" width="15.31" height="1.5" transform="translate(-9.49 -2.09) rotate(0.79)"/></g><circle class="cls-45" cx="134.98" cy="355.02" r="1.11"/><path class="cls-3" d="M138.81,359.61l-14.62-1.77,1.13-9.29,4.74.79c.11,3.12,1.13,4.51,2,5.19,1.9,1.54,4.43.8,5.93,2.69A4.3,4.3,0,0,1,138.81,359.61Z" transform="translate(-14.47 0)"/><g class="cls-46"><rect class="cls-45" x="123.88" y="357.72" width="15.31" height="1.5" transform="translate(29.69 -13.24) rotate(6.92)"/></g><polygon class="cls-47" points="131.99 350.33 136.79 350.33 136.85 343.86 131.51 343.86 131.99 350.33"/><path class="cls-48" d="M145.31,255.14a6.56,6.56,0,0,1-3.63,4.45,6.31,6.31,0,0,1-6.52-1,17.81,17.81,0,0,0,0-10.35l8.69,2.15a21,21,0,0,0-.12,2.66c0,1.14.14,1.57.47,1.84A1.49,1.49,0,0,0,145.31,255.14Z" transform="translate(-14.47 0)"/><path class="cls-5" d="M153.57,272.49a2.39,2.39,0,0,1,1.39.9,51.8,51.8,0,0,1,6,0c3.43.19,5.13.72,8.88.81,1.43,0,2.59,0,3.32-.07L172,277.2a81.17,81.17,0,0,1-12.16,2,15.64,15.64,0,0,1-3.93.1c-1.58-.16-5.76,0-6.32-2.08S151.41,272,153.57,272.49Z" transform="translate(-14.47 0)"/><path class="cls-49" d="M152,279.16a5.71,5.71,0,0,1-2.1-.74c-1.52-.94-2.06-2.4-2.63-4-1.05-2.95-1.82-5.16-2.44-7l5.57-10.23a23.25,23.25,0,0,1,1,3.77c1.06,5.7.67,6.19,1.32,7.88,1.33,3.44,2.23,3.72,2.16,5.36A6.13,6.13,0,0,1,152,279.16Z" transform="translate(-14.47 0)"/><path class="cls-50" d="M124.5,349.7c0-.23,5.39-41.88,6.11-49.24.45-4.68.94-12.15,1.46-16.72l18.06-.15c.88,7,1.59,17.26,2.06,25,.2,3.18.49,39.78.6,42.86a8.18,8.18,0,0,1-4.32,1.24c-1.9,0-1.84.19-2.49-.17-.61-4.35-2.84-42.24-3.45-47.91-1.21,7.08-10.57,44.92-10.72,45.64C130.87,350.63,125.67,350.33,124.5,349.7Z" transform="translate(-14.47 0)"/><path class="cls-4" d="M147.17,255a22.33,22.33,0,0,1-2.42,0,5.35,5.35,0,0,1-6.92,1.16l-1.89-1.16-6.13,3.77a3.19,3.19,0,0,0-1.49,3.14c.13,1,.29,2.06.46,3.27.69,4.85,1,7.29,1.43,9.29a70.2,70.2,0,0,1,1.42,6.92c.29,2.16.4,1.09.44,2.29a20.43,20.43,0,0,0,18.06-.16,27.15,27.15,0,0,0-.28-3.5,9.85,9.85,0,0,1,.11-2.28c1.12-4.74-1.35-6.46-.23-11.59a35.24,35.24,0,0,0,.94-4.67,11.14,11.14,0,0,0-.09-3.49A3.14,3.14,0,0,0,147.17,255Z" transform="translate(-14.47 0)"/><g class="cls-51"><path class="cls-52" d="M143.24,287" transform="translate(-14.47 0)"/><path class="cls-53" d="M141.43,257.79" transform="translate(-14.47 0)"/></g><path class="cls-5" d="M141.32,252.58c3.8.51,4.18.61,4.61.24s.53-1.07,1-2.69c.23-.81.4-1.5.52-2,.26.08,1,.27,1.21,0s0-.55-.24-1.08a14.78,14.78,0,0,1-.62-2c0-.13,0-.27,0-.42a7,7,0,0,0-.31-2.32,7.25,7.25,0,0,0-2.15-3.11,7,7,0,0,0-7.65-.91,6.78,6.78,0,0,0-3.4,5.26,13.77,13.77,0,0,0,.77,4.44v0l.1.28c.17.53,1,1,1,1,.74.45.89.27,1.29.56.73.52.49,1.26,1,1.93C138.88,252.26,139.42,252.32,141.32,252.58Z" transform="translate(-14.47 0)"/><g class="cls-54"><path class="cls-55" d="M141.25,244.06a10.24,10.24,0,0,0-.44,2.46h-1.15c-.34-.4-.76-.77-1.1-.67-.78.22-.34,2.58-1.34,3.07-.77.36-1.91-.57-2.05-.69-1.63-1.33-2.1-4-1.39-6.19a6.93,6.93,0,0,1,3.45-3.83,8.1,8.1,0,0,1,6.08-.58,7.81,7.81,0,0,1,4.64,3.83c.14.29.69-.17.34.17-.17.17-.58,1.67-2.1,1-2.43-1.06-2.74-1.53-3.35-1.34C142,241.55,141.68,242.68,141.25,244.06Z" transform="translate(-14.47 0)"/></g><path class="cls-5" d="M138.12,289.06l3.9,3.31a.62.62,0,0,1,.33.52.46.46,0,0,1-.33.42.66.66,0,0,1,.1.68.71.71,0,0,1-.84.28.53.53,0,0,1-.14.46c-.24.21-.8.15-1.29-.27a.75.75,0,0,1-.44.33,1.08,1.08,0,0,1-.72-.1,12.53,12.53,0,0,1-2.69-1.44,9.26,9.26,0,0,1-1.57-1.53,12,12,0,0,1-.65-1.29c-.78-.21-.87-1.56-.9-1.64-.26-.55.34.08,1.72-.45Z" transform="translate(-14.47 0)"/><path class="cls-5" d="M136.12,287.66l.87.16a6.18,6.18,0,0,1,2.18.84l2.89,1.79h0a1.21,1.21,0,0,1-1.59.41l-1.2-.57-4.13,0-.76-1.87h0A1.63,1.63,0,0,1,136.12,287.66Z" transform="translate(-14.47 0)"/><path class="cls-5" d="M123.08,272.21c.22.37.91.83.78,1.73a45.39,45.39,0,0,1,4.43,5.22c2.45,2.9,2.8,4.43,5.57,7.49,1.06,1.17,2,2.06,2.58,2.6-1.17.54-1.43.74-2.61,1.28-5.49-3.28-7.74-6.44-9.92-8.12a16.07,16.07,0,0,1-3.07-3.06c-1.06-1.4-4.92-5.23-3.59-7.34A3.5,3.5,0,0,1,123.08,272.21Z" transform="translate(-14.47 0)"/><path class="cls-56" d="M134.68,259.44A3.79,3.79,0,0,0,131.8,258a4.51,4.51,0,0,0-3,1.27c-3.55,2.93-4.15,4.44-7,6.85-1.46,1.22-2.93,2.2-4,4.34-.31.62-1.4,2.45-1.12,2.73,1.48,1.47,2.82.63,3.42.72a11.41,11.41,0,0,0,3.75.35c.24,0,.37-.41.4-.68.5-4.9,7.37-4.66,9.65-9.35C134.93,262.23,135.5,260.46,134.68,259.44Z" transform="translate(-14.47 0)"/><path class="cls-55" d="M147.6,242.58l-4.48-2.5-8.82,3.41s0-2.62,0-3.5a4.83,4.83,0,0,1,.74-1.91c.37-.31,1.67-1.59,5.92-1.59,1.49,0,6,.19,6,.19a.61.61,0,0,1,.62.67Z" transform="translate(-14.47 0)"/><path class="cls-57" d="M312.89,164.26c-.35-.43-.58-.44-.63-.7s.41-.81,1.41-1.49a16.78,16.78,0,0,1,4.09-2,11.45,11.45,0,0,1,1.77-.52c.52-.12,2.28-.7,2.53-.31.14.22,0,.61-.46.71s-.09,0-.78.16c-.33.07-2.39.46-2.07,1,.05.08.23.27.28.36a1.34,1.34,0,0,1,.05.52c0,.25.21.38.3.52.27.42-.25,1.22-.31,1.31-.6.9-2.68.73-2.85.82C315.83,164.77,313.52,165,312.89,164.26Z" transform="translate(-14.47 0)"/><path class="cls-57" d="M272.22,190.47a2.17,2.17,0,0,1,1.63-.4,5.15,5.15,0,0,1,3,1.28c2.74.88,4.08,1.43,4,1.66s-1.15.16-3.3-.13c.76.31,1.56.67,2.37,1.09l.79.43a1,1,0,0,1-.44.77,1,1,0,0,1-.57.12.53.53,0,0,1-.07.38c-.23.32-.92.16-1.83,0-2.5-.53-2.4-.4-2.76-.6-.57-.31-.65-.53-1.89-1.71-.67-.63-1.24-1.12-1.59-1.42A2,2,0,0,1,272.22,190.47Z" transform="translate(-14.47 0)"/><path class="cls-58" d="M273.18,195a21.23,21.23,0,0,1-5.14-3.65,23.23,23.23,0,0,1-5.77-10.27c.27-3.08,7.16-14.45,10.68-15.43,1.24-.34,1.38-.32,2.17.49s-.91,5.14-1.52,6.18q-2.89,4.24-5.8,8.47a35.59,35.59,0,0,1,5.61,9C273.44,191.3,273.14,193.47,273.18,195Z" transform="translate(-14.47 0)"/><path class="cls-59" d="M269.06,259.18a1.2,1.2,0,0,0-1,.16c-.44.36-.23,1-.23,2.24,0,2.06-.58,2.61-.08,3.31a2.44,2.44,0,0,0,1.58.75,6,6,0,0,0,3.22-.18,12,12,0,0,0,2.53.86,12.18,12.18,0,0,0,4.84.08,1.11,1.11,0,0,0,.39-.91c-.11-.54-.95-.77-1.46-.94a16.26,16.26,0,0,1-3.79-2.31,11.7,11.7,0,0,1-2.9-3Z" transform="translate(-14.47 0)"/><path class="cls-57" d="M277.36,159a10.15,10.15,0,0,1,.71,3.08c.12,1.88-.4,2.46-.56,2.62a2.21,2.21,0,0,1-.3.24c-.27,0-.56,0-.86.07s-.65.1-.94.16a9.75,9.75,0,0,0,2.8,4.17c.29.25,4.2,3.56,6.3,1.94,1.14-.89,2.39-3.89.51-5.25-.7-.51-1.63-.57-1.9-1.36a2.05,2.05,0,0,1,.45-2Z" transform="translate(-14.47 0)"/><path class="cls-59" d="M307.39,254.9c-.1.79-.16,1.63-.19,2.53a29.91,29.91,0,0,0,.07,3.33.89.89,0,0,0,1,.81l11.2-1.83a1.14,1.14,0,0,0,.19-1c-.23-.52-1.12-.58-1.63-.63a13.53,13.53,0,0,1-5.69-1.68,6.28,6.28,0,0,1-1.95-2.16Z" transform="translate(-14.47 0)"/><path class="cls-60" d="M307.34,236.49c-3-5.9-5.18-9.85-9.17-17.12-4.59-8.34-7.36-13.14-10.87-18.56-7.14-11.05-6.49-9.32-9.81-9.43-3.66-.13-7.13,5.79-6.87,6.67,1.26,4.29-.59,8.5,2.64,11.35,2.09,1.84,5.4,6.68,12,16.36,8.31,12.13,15.45,23.94,20,31.71l9.62-5.35C313,247.86,310.42,242.55,307.34,236.49Z" transform="translate(-14.47 0)"/><path class="cls-32" d="M279.09,186.08c-1.65-1.64-4.24-2.63-6.28-1.65-3.4,1.63-6.68,11.5-7,15.18-1.59,19.8.26,55,.18,60.47l8.71-.16c.38-4.18,1.18-7,2.15-15,.68-5.58,1-7.22,2.08-15.91,2-15.65,2.32-19.55,2.48-22.2C282.42,190.4,280.38,187.35,279.09,186.08Z" transform="translate(-14.47 0)"/><path class="cls-61" d="M261.66,208.32a82.68,82.68,0,0,0,35.19-1,79.65,79.65,0,0,1-7.31-13.15s-4.69-10.69-2.55-13.65a9.14,9.14,0,0,0,1.58-3.2,4.43,4.43,0,0,0,.2-1.09c.07-.82,0-1.2-.88-5.17-.6-2.92-.62-3.1-.86-3.48s-1.37-2-5.93-2.51a21.1,21.1,0,0,0-8.72.77c-1.59.5-4,2.9-3.78,5.34a25.18,25.18,0,0,0,.66,4.28c.67,2.74,1.51,4.21,1.17,6.56a9.82,9.82,0,0,1-2.37,4.93C266,189.51,263.47,195.12,261.66,208.32Z" transform="translate(-14.47 0)"/><path class="cls-57" d="M288.39,158.52a1.76,1.76,0,0,1-.45.35,5.49,5.49,0,0,1-.56.32c0,.37-.06.75-.11,1.15a18.28,18.28,0,0,1-.4,2.1,16,16,0,0,1-2.23.26,11.52,11.52,0,0,1-4-.42,7.36,7.36,0,0,1-2.5-1.19A5.93,5.93,0,0,1,284.32,151a5,5,0,0,1,2.43,2.55c.25.69.09.76.49,1.93.1.28.22.63.43,1.09C288.16,157.71,288.59,158.17,288.39,158.52Z" transform="translate(-14.47 0)"/><path class="cls-59" d="M285.21,155.84c-1.28.63-1.59,1.51-2.23,1.36-.47-.12-.53-.57-.81-.62-.48-.09-1.36,1-3.11,6.19l-1,0a4.39,4.39,0,0,0,0-.84,4.29,4.29,0,0,0-.57-1.48c-.08-.12-1.28-2.09-1.61-2.75a5.85,5.85,0,0,1,.11-4.91,6.58,6.58,0,0,1,3.69-3.12,11.52,11.52,0,0,1,4.44-.63c1.64,0,3.07.39,4-.45.19-.18.46-.49.74-.43s.62.75.63,1.32c0,1.09-.76,1.82-.52,2.08s.64-.19.89,0,.06,1-.25,1.53a3.49,3.49,0,0,1-1.33,1.22A26.14,26.14,0,0,1,285.21,155.84Z" transform="translate(-14.47 0)"/><path class="cls-62" d="M280.52,165c5.38.4,10.82,1.75,16.14,2.65,0,0,12.34-3.79,17.37-5.83l.7,2.93c-2,.86-12.43,7.52-17.07,8.71-4.36,1.12-12.5-.34-18-.89a3.79,3.79,0,0,1-3.15-5.14l0-.08A3.59,3.59,0,0,1,280.52,165Z" transform="translate(-14.47 0)"/><path class="cls-63" d="M205.51,316a10.92,10.92,0,0,0-1.24,2.62,10.64,10.64,0,0,0-.47,2.85c.38.24.78.46,1.21.68a17.33,17.33,0,0,0,6.45,1.79,15.65,15.65,0,0,0,4.58-1.84,1.23,1.23,0,0,0-.26-.33,7.35,7.35,0,0,0-3.78-1.11,6.68,6.68,0,0,1-2.24-1.82,6.51,6.51,0,0,1-1.23-2.56Z" transform="translate(-14.47 0)"/><path class="cls-63" d="M250.76,302.8c.11.73.27,1.51.47,2.33a28.72,28.72,0,0,0,.93,3,.83.83,0,0,0,1.14.47l9.65-4.53a1.92,1.92,0,0,0-.91-1.13c-.61-.28-1.17,0-1.91.23a8.23,8.23,0,0,1-4.47-.23,6.21,6.21,0,0,1-2.31-1.45Z" transform="translate(-14.47 0)"/><path class="cls-64" d="M205.19,244.93a67,67,0,0,0-1.23,6.8c-.46,3.64-.57,7-.26,15.87.12,3.41.31,7.77.61,12.86-.14,2.12-.24,4.28-.32,6.46-.3,8.45-.12,22.46.4,30l4.76.07c.43-7.09,1-20.36,1.77-27.8q.41-4.06.87-8c.21-1.7.55-4.42,1-7.77,2.15-15.3,3.6-19.28,1.22-23.08C213.08,248.76,210.87,246.24,205.19,244.93Z" transform="translate(-14.47 0)"/><path class="cls-65" d="M220.19,244.26a241.66,241.66,0,0,1,17.33,25.36c6,10.15,13.74,23.78,17.43,32.43l-4.73,1.36-9.06-12.13c-4.38-5.91-5.45-7.38-6.69-9.58a47.6,47.6,0,0,1-3.82-8.64c-2.58-1.37-4.84-2.59-6.71-3.6-7-3.77-13-7.09-17.19-11.79-1.61-1.8-2.91-3.76-2.79-5.94,0-.41.17-1.21.45-2.77s.55-2.94.73-3.81a51.2,51.2,0,0,0,6.11.2A49.41,49.41,0,0,0,220.19,244.26Z" transform="translate(-14.47 0)"/><path class="cls-66" d="M246.15,203.2l1.56,1.71a110.72,110.72,0,0,1-8.14,9.91c-2.09,2.26-4.17,4.31-6.17,6.16a62.8,62.8,0,0,1-15.56,2.79,5.7,5.7,0,0,1-1.5-.12c-.22,0-3.9-.86-4.11-3.23-.13-1.51,1.16-3.19,3.21-3.81l15.79-1.39Z" transform="translate(-14.47 0)"/><path class="cls-18" d="M202.18,245.54a20.39,20.39,0,0,0,12.95,3.22,20,20,0,0,0,9.72-3.72c-3-14-4-19.18-4-19.6a4.88,4.88,0,0,0-.05-1.05c-.12-.76-.32-1.07-1.95-4.52-1.2-2.54-1.25-2.7-1.56-3-.84-.82-3.14-1.46-6-1-.73.12-7.76,1.42-9.13,6.3-.59,2.1.07,4.14.61,5.8s2.38,6.38,2.14,8c-.17,1.2-.48,1.34-1.33,4A46.75,46.75,0,0,0,202.18,245.54Z" transform="translate(-14.47 0)"/><path class="cls-67" d="M216.17,204.77a11.41,11.41,0,0,1,1.18,5.66c0,2.28,0,5.08-.14,8.32a9,9,0,0,1-5.87-2.85c-3.73-4.38-.44-11.06,1.16-12.73a1.88,1.88,0,0,1,1.31-.71C214.9,202.46,215.7,203.92,216.17,204.77Z" transform="translate(-14.47 0)"/><rect class="cls-39" x="227.53" y="211.17" width="24.76" height="24.76" rx="5.52" transform="translate(-50.88 46.97) rotate(-10.4)"/><path class="cls-68" d="M238.36,214.93l3.24,4.36L247,219a.51.51,0,0,1,.43.8l-3.12,4.52,1.88,5.14a.51.51,0,0,1-.63.67l-5.16-1.57L236.17,232a.5.5,0,0,1-.82-.38l-.08-5.5-4.5-3a.51.51,0,0,1,.12-.91l5.12-1.82,1.46-5.31A.5.5,0,0,1,238.36,214.93Z" transform="translate(-14.47 0)"/><path class="cls-66" d="M237.73,236.9l4,1.58a16.66,16.66,0,0,0,2.45,0c.63-.05,1.14-.14,1.42-.55a1,1,0,0,0,.17-.47.65.65,0,0,0,.68-.1.73.73,0,0,0,.23-.69.58.58,0,0,0-.48-.44.83.83,0,0,0,.08-.48c-.13-.64-1.31-1-3-.94.81-.44,1.28-1.06,1.18-1.51a.6.6,0,0,0-.19-.33l-2.08.88a4.48,4.48,0,0,0-1.38.06,5,5,0,0,0-2.16,1.08Z" transform="translate(-14.47 0)"/><path class="cls-66" d="M216.52,208.12a1.66,1.66,0,0,1-.35.44,4.6,4.6,0,0,1-.46.45l-.27,3.41a13.08,13.08,0,0,1-1.55.6,10.88,10.88,0,0,1-4,.52,7.06,7.06,0,0,1-2.68-.56,5.87,5.87,0,0,1,3.62-11.11,5,5,0,0,1,2.94,1.9l.18.3c.16.32.25.56.28.63a7.35,7.35,0,0,0,1.43,2.42C216.15,207.59,216.6,207.83,216.52,208.12Z" transform="translate(-14.47 0)"/><path class="cls-66" d="M206.59,211.19a6.38,6.38,0,0,1,1.25,5.81,7.37,7.37,0,0,0,3.33,1.51c.71.12,1.43.22,1.88-.23a1.86,1.86,0,0,0,.27-1.61,15.64,15.64,0,0,1-.22-1.57,14.55,14.55,0,0,1,0-2Z" transform="translate(-14.47 0)"/><path class="cls-66" d="M238.69,235c-.06.77-.11,1.55-.17,2.32a107.86,107.86,0,0,1-12.78.93c-3.09.05-6,0-8.72-.21a63.48,63.48,0,0,1-12.75-9.34,6,6,0,0,1-1-1.17c-.12-.19-2.07-3.41-.49-5.2,1-1.14,3.11-1.37,5-.31l11.9,10.47Z" transform="translate(-14.47 0)"/><path class="cls-67" d="M210.78,212.84a33.24,33.24,0,0,0,.16,8.18,9.5,9.5,0,0,1-5.88.86,9.4,9.4,0,0,1-4.24-2c-2-8.43-.6-15.71,3-18.09a11.27,11.27,0,0,1,5.08-1.67c1.18,0,3.42-.13,4.42,1.24a2.51,2.51,0,0,1,.47,2,1.71,1.71,0,0,1-.43.69C212.4,205,211.22,208.79,210.78,212.84Z" transform="translate(-14.47 0)"/><path class="cls-66" d="M245.38,204.25c.2,1,1.88,1.73,3.23,1.38a3.17,3.17,0,0,0,1.86-1.61c.42-.79.15-1.05.45-2,.61-1.91,2.35-2.75,2.09-3.19-.06-.11-.24-.21-.81-.13a.41.41,0,0,0-.17-.32c-.25-.15-.69.16-.9.31a35.08,35.08,0,0,0-3.69,2.85C246,203,245.29,203.77,245.38,204.25Z" transform="translate(-14.47 0)"/><path class="cls-66" d="M252.69,203.12a3,3,0,0,1-1.08,1.15c-.76.46-3.12,1.9-3.69,1.27-.28-.31,0-1,.16-1.27.35-.6,1.27-.43,1.78-1l.31-.32c.31-.32.47-.47.57-.44s0,.58.3.74c.43.29,1.57-.89,1.79-.69S252.75,203,252.69,203.12Z" transform="translate(-14.47 0)"/><path class="cls-66" d="M249.1,199.3a5.4,5.4,0,0,0-1.23,1.5c-1.34,1.95-2.5,3-2.37,3.09s.5-.22.72-.38c1.84-1.32,5.39-4.32,5-4.88C251,198.36,249.86,198.74,249.1,199.3Z" transform="translate(-14.47 0)"/><polygon class="cls-68" points="223.77 222.65 229.96 220.25 227.73 232.88 223.77 222.65"/><polygon class="cls-68" points="227.1 224.46 220.92 226.85 223.14 214.22 227.1 224.46"/></g></g></svg>